<?xml version="1.0" standalone="no"?>
<!DOCTYPE svg PUBLIC "-//W3C//DTD SVG 20010904//EN"
 "http://www.w3.org/TR/2001/REC-SVG-20010904/DTD/svg10.dtd">
<svg version="1.0" xmlns="http://www.w3.org/2000/svg"
 width="640.000000pt" height="640.000000pt" viewBox="0 0 640.000000 640.000000"
 preserveAspectRatio="xMidYMid meet">
<metadata>
Created by potrace 1.14, written by Peter Selinger 2001-2017
</metadata>
<g transform="translate(0.000000,640.000000) scale(0.100000,-0.100000)"
fill="#000000" stroke="none">
<path d="M3090 5641 c-47 -25 -71 -60 -77 -113 -6 -54 13 -96 62 -135 l35 -28
0 -127 0 -128 -44 0 c-90 0 -309 -40 -472 -86 l-61 -17 -63 44 -62 44 0 88 0
89 35 23 c60 41 80 139 40 193 -70 95 -186 95 -256 0 -40 -54 -20 -152 41
-193 l35 -24 -2 -101 c-2 -117 4 -132 73 -176 25 -16 46 -32 46 -35 0 -3 -35
-27 -77 -52 -98 -58 -180 -131 -227 -202 -21 -30 -41 -55 -45 -55 -5 0 -34 11
-65 25 l-56 25 0 62 c0 59 2 64 30 80 42 24 70 75 70 126 0 139 -174 198 -265
91 -52 -63 -37 -171 31 -211 l34 -20 0 -88 c0 -103 0 -102 118 -159 l72 -35 0
-865 c0 -841 1 -867 20 -898 35 -59 60 -67 204 -73 l131 -5 5 -220 c3 -153 9
-227 18 -243 l13 -22 738 0 739 0 7 28 c5 15 11 124 14 242 l6 215 125 5 c138
6 157 12 195 68 l25 37 0 876 0 876 103 28 c56 15 110 35 120 43 14 12 17 32
17 103 l0 87 34 20 c68 40 83 148 31 211 -91 107 -265 48 -265 -91 0 -52 28
-102 70 -126 29 -16 30 -20 28 -76 l-3 -59 -80 -23 c-44 -13 -84 -24 -90 -24
-5 0 -31 29 -57 64 -55 74 -159 157 -277 219 l-84 45 34 14 c19 8 67 27 107
42 39 15 79 37 87 49 9 13 15 44 15 77 0 51 2 56 34 77 72 46 81 155 18 218
-69 70 -172 58 -235 -27 -43 -58 -16 -161 52 -201 25 -14 31 -25 31 -52 0 -33
0 -33 -117 -80 -65 -25 -123 -53 -130 -62 -11 -14 -20 -13 -95 7 -92 25 -309
59 -375 60 l-43 0 0 128 0 127 35 28 c48 39 68 81 62 133 -12 106 -123 166
-217 115z m104 -97 c23 -23 20 -51 -9 -70 -23 -15 -27 -15 -50 0 -14 9 -25 25
-25 36 0 24 26 50 50 50 10 0 26 -7 34 -16z m-801 -105 c30 -42 -16 -94 -60
-70 -44 23 -27 91 22 91 13 0 30 -9 38 -21z m1662 -53 c28 -43 -18 -91 -63
-67 -26 14 -33 45 -15 70 19 29 59 27 78 -3z m-2123 -383 c21 -18 24 -53 6
-71 -27 -27 -88 -3 -88 34 0 17 35 54 52 54 6 0 20 -7 30 -17z m2568 -3 c24
-24 25 -43 4 -64 -48 -49 -113 15 -67 66 21 23 38 23 63 -2z m-1075 -139 c50
-7 99 -16 110 -21 16 -7 61 -20 85 -24 3 -1 10 -4 15 -7 8 -5 53 -19 75 -23 3
-1 44 -21 92 -44 95 -47 172 -109 218 -178 l30 -43 0 -790 0 -791 -175 0 -175
0 -2 -242 -3 -243 -107 -3 -108 -3 0 176 c0 173 0 176 -25 200 -20 21 -34 25
-80 25 -46 0 -60 -4 -80 -25 -25 -24 -25 -27 -25 -200 l0 -175 -115 0 -115 0
0 175 c0 173 0 176 -25 200 -20 21 -34 25 -80 25 -46 0 -60 -4 -80 -25 -25
-24 -25 -27 -25 -200 l0 -176 -97 3 -98 3 4 243 4 242 -187 0 -186 0 0 789 c0
733 1 792 18 821 49 92 154 166 342 242 14 6 33 14 42 19 9 5 36 12 60 15 24
4 48 10 53 15 6 4 20 8 30 8 33 -1 166 19 173 26 10 10 338 -1 437 -14z"/>
<path d="M3331 4446 c-46 -25 -50 -48 -51 -254 0 -210 6 -238 55 -260 17 -8
89 -12 210 -12 121 0 193 4 210 12 49 22 55 50 55 258 0 208 -6 236 -55 258
-38 18 -392 16 -424 -2z"/>
<path d="M2541 4296 c-42 -23 -50 -53 -51 -178 0 -196 3 -198 270 -198 267 0
270 2 270 195 0 193 -3 195 -272 195 -141 -1 -199 -4 -217 -14z"/>
<path d="M3010 3720 l-21 -21 28 -47 c15 -26 38 -65 52 -87 13 -22 24 -45 24
-51 0 -6 -24 -50 -53 -99 l-53 -88 22 -19 c38 -30 44 -25 97 64 l40 67 20 -36
c27 -52 72 -113 83 -113 5 0 19 8 32 18 l22 19 -53 88 c-29 49 -53 93 -53 99
0 6 23 49 52 96 28 47 51 88 51 92 0 4 -11 15 -25 24 -32 21 -42 13 -92 -72
l-37 -64 -32 52 c-65 107 -71 111 -104 78z"/>
<path d="M2380 2035 l0 -34 58 -3 c51 -3 57 -5 54 -23 -2 -11 -5 -30 -5 -42
-1 -13 -5 -23 -9 -23 -5 0 -8 -20 -8 -45 0 -25 5 -45 10 -45 6 0 10 -25 10
-55 l0 -55 55 0 55 0 0 55 c0 30 -4 55 -10 55 -13 0 -13 77 0 85 8 5 7 11 -1
21 -9 11 -8 15 5 20 9 3 16 17 16 30 0 22 4 24 50 24 l50 0 0 35 0 35 -165 0
-165 0 0 -35z"/>
<path d="M2750 2045 c0 -14 4 -25 10 -25 5 0 7 -7 4 -15 -4 -8 -1 -15 5 -15 7
0 11 -20 11 -50 0 -38 -4 -50 -15 -50 -8 0 -15 -9 -15 -19 0 -11 -8 -22 -17
-24 -15 -4 -16 -5 -2 -6 18 -1 31 -52 19 -71 -4 -6 -5 -22 -2 -36 l4 -24 134
0 134 0 0 25 c0 14 0 28 0 33 0 4 -35 9 -77 12 l-78 5 -3 33 -3 32 70 0 c69 0
71 1 71 25 0 16 6 25 15 25 8 0 15 5 15 10 0 6 -30 10 -70 10 -70 0 -70 0 -70
28 0 15 -5 33 -12 40 -9 9 7 12 74 12 48 0 90 5 93 10 3 6 -1 10 -9 10 -10 0
-16 9 -16 25 l0 25 -135 0 -135 0 0 -25z m240 -285 c0 -5 -7 -10 -15 -10 -8 0
-15 5 -15 10 0 6 7 10 15 10 8 0 15 -4 15 -10z"/>
<path d="M3165 2055 c-22 -7 -34 -13 -26 -14 9 -1 3 -11 -15 -28 -18 -16 -24
-28 -17 -30 10 -4 9 -11 -2 -33 -18 -34 -19 -83 -4 -112 8 -16 8 -22 -2 -29
-9 -5 -4 -16 20 -38 43 -40 128 -65 197 -58 56 6 127 34 119 47 -3 4 3 11 13
14 9 3 27 12 39 19 21 13 20 14 -32 31 -53 16 -82 15 -70 -4 3 -5 -20 -16 -50
-25 -47 -13 -60 -14 -83 -3 -15 7 -28 18 -28 23 -3 27 -30 75 -44 79 -13 3
-13 4 1 5 9 0 22 14 29 30 6 16 18 32 27 35 8 3 12 10 9 15 -8 12 41 23 67 15
12 -3 37 -17 55 -31 30 -23 36 -24 65 -12 18 7 36 16 42 21 15 14 -39 59 -81
68 -22 5 -57 13 -79 19 -52 14 -101 13 -150 -4z"/>
<path d="M3570 2015 c0 -37 -4 -55 -12 -55 -7 0 -5 -5 5 -11 13 -8 17 -24 17
-74 0 -52 3 -65 16 -65 8 0 12 -4 9 -10 -3 -5 -15 -10 -26 -10 -16 0 -19 -7
-19 -40 l0 -40 55 0 55 0 0 45 c0 42 2 45 28 46 16 1 20 3 10 6 -10 2 -18 13
-18 23 0 15 9 19 53 22 28 1 67 2 85 0 27 -3 32 -7 26 -20 -4 -9 -10 -41 -12
-69 l-4 -53 55 0 55 0 4 61 c3 38 10 64 19 70 9 5 10 9 2 9 -7 0 -13 19 -15
48 -3 45 -4 47 -38 53 -19 4 -32 8 -27 9 13 5 27 7 42 9 11 1 15 14 15 51 l0
50 -55 0 -55 0 0 -55 0 -55 -32 -1 -33 -2 34 -6 c19 -3 36 -12 39 -18 3 -10
-16 -13 -72 -13 -65 0 -79 3 -98 22 -14 14 -18 23 -10 26 7 2 12 24 12 53 l0
49 -55 0 -55 0 0 -55z"/>
<path d="M3295 1810 c-3 -6 1 -7 9 -4 18 7 21 14 7 14 -6 0 -13 -4 -16 -10z"/>
<path d="M3020 1629 c-47 -5 -110 -12 -140 -16 l-55 -9 2 -59 c1 -33 5 -184 9
-337 l6 -276 197 5 c147 4 204 9 230 21 81 37 136 174 136 337 -1 117 -19 189
-67 261 -56 84 -101 94 -318 73z m175 -215 c60 -24 60 -224 0 -248 -9 -3 -57
-6 -106 -6 l-89 0 0 58 c0 31 -3 87 -6 124 l-7 67 64 4 c35 2 78 4 96 5 17 1
39 -1 48 -4z"/>
<path d="M3460 1358 c0 -146 -3 -298 -6 -339 l-7 -75 239 -12 c131 -6 240 -10
242 -8 1 2 6 35 9 74 l6 70 -39 6 c-47 7 -239 26 -265 26 -16 0 -19 8 -19 51
l0 52 70 -7 c38 -4 109 -13 157 -20 49 -7 90 -11 93 -9 2 2 6 35 8 73 l4 68
-58 12 c-33 7 -106 20 -164 29 -69 11 -105 21 -104 29 1 6 2 23 3 37 1 29 2
29 201 -10 85 -17 117 -20 122 -12 4 7 8 40 8 74 l0 62 -52 16 c-84 25 -289
65 -372 72 l-76 6 0 -265z"/>
<path d="M2481 1519 c-46 -16 -85 -30 -87 -32 -2 -2 -24 -73 -49 -158 -25 -84
-66 -216 -91 -292 -26 -76 -44 -141 -41 -144 3 -3 42 -2 86 2 l81 7 10 42 c6
22 13 46 15 52 4 13 38 21 136 30 l75 6 17 -55 17 -55 88 5 c48 3 88 6 89 7 3
2 -144 379 -193 495 -27 63 -53 116 -59 117 -5 1 -48 -11 -94 -27z m54 -273
l24 -64 -52 -10 c-29 -6 -54 -9 -56 -6 -3 3 6 44 30 139 13 46 16 42 54 -59z"/>
<path d="M4046 1438 c-5 -61 -26 -461 -26 -505 0 -19 7 -22 53 -27 28 -3 116
-13 194 -22 113 -12 150 -13 182 -3 118 35 156 171 87 314 -54 109 -134 167
-358 259 -136 55 -125 57 -132 -16z m302 -223 c49 -20 72 -55 72 -113 0 -26
-7 -45 -20 -57 -19 -18 -23 -18 -113 1 l-92 20 -3 89 c-2 48 -1 94 2 101 5 14
47 2 154 -41z"/>
<path d="M2122 1370 c-97 -51 -266 -157 -324 -203 -16 -13 -18 -34 -18 -177
l0 -162 33 5 c17 3 51 9 75 12 l42 7 0 58 0 58 143 35 c139 34 142 35 145 63
5 39 -7 114 -19 114 -5 0 -68 -22 -139 -49 -131 -48 -131 -48 -128 -24 2 20
18 31 88 62 47 20 114 48 150 61 36 13 68 26 73 30 4 3 4 43 0 88 l-8 81 -113
-59z"/>
</g>
</svg>
